<?xml version="1.0" encoding="UTF-8"?> <svg xmlns="http://www.w3.org/2000/svg" viewBox="0 0 178.5 158.9"> <defs> <style>.a{fill:#893de6;}.b{fill:#80c8ff;}.c{fill:#c7ecff;}.d{fill:#c9a6f3;}</style> </defs> <title>barlines</title> <path class="a" d="M167.5,145H149.2a2.6,2.6,0,1,1,0-5.2h13v-13a2.5,2.5,0,0,1,2.7-2.6,2.5,2.5,0,0,1,2.6,2.6V145Z"></path> <path class="a" d="M32,145H11.1V126.8a2.5,2.5,0,0,1,2.6-2.6,2.4,2.4,0,0,1,2.6,2.6v13H32a2.6,2.6,0,1,1,0,5.2Z"></path> <path class="b" d="M154.4,129.4a2.5,2.5,0,0,1-2.6-2.6V82.5a2.5,2.5,0,0,1,2.6-2.6,2.4,2.4,0,0,1,2.6,2.6v44.3A2.5,2.5,0,0,1,154.4,129.4Z"></path> <path class="b" d="M24.1,129.4a2.5,2.5,0,0,1-2.6-2.6V82.5a2.5,2.5,0,0,1,2.6-2.6,2.4,2.4,0,0,1,2.6,2.6v44.3A2.5,2.5,0,0,1,24.1,129.4Z"></path> <path class="c" d="M144,124.2a2.5,2.5,0,0,1-2.6-2.6v-2.7a2.6,2.6,0,1,1,5.2,0v2.7A2.5,2.5,0,0,1,144,124.2Z"></path> <path class="c" d="M136.2,124.2a2.5,2.5,0,0,1-2.6-2.6v-2.7a2.6,2.6,0,0,1,5.2,0v2.7A2.5,2.5,0,0,1,136.2,124.2Z"></path> <path class="c" d="M128.4,124.2a2.5,2.5,0,0,1-2.6-2.6v-2.7a2.5,2.5,0,0,1,2.6-2.6,2.5,2.5,0,0,1,2.6,2.6v2.7A2.5,2.5,0,0,1,128.4,124.2Z"></path> <path class="c" d="M120.6,124.2a2.5,2.5,0,0,1-2.7-2.6v-2.7a2.5,2.5,0,0,1,2.7-2.6,2.5,2.5,0,0,1,2.6,2.6v2.7A2.5,2.5,0,0,1,120.6,124.2Z"></path> <path class="c" d="M112.7,124.2a2.5,2.5,0,0,1-2.6-2.6v-2.7a2.5,2.5,0,0,1,2.6-2.6,2.5,2.5,0,0,1,2.6,2.6v2.7A2.5,2.5,0,0,1,112.7,124.2Z"></path> <path class="c" d="M104.9,124.2a2.5,2.5,0,0,1-2.6-2.6v-2.7a2.5,2.5,0,0,1,2.6-2.6,2.5,2.5,0,0,1,2.6,2.6v2.7A2.5,2.5,0,0,1,104.9,124.2Z"></path> <path class="c" d="M97.1,124.2a2.5,2.5,0,0,1-2.6-2.6v-2.7a2.6,2.6,0,1,1,5.2,0v2.7A2.5,2.5,0,0,1,97.1,124.2Z"></path> <path class="c" d="M89.3,124.2a2.5,2.5,0,0,1-2.6-2.6v-2.7a2.5,2.5,0,0,1,2.6-2.6,2.5,2.5,0,0,1,2.6,2.6v2.7A2.5,2.5,0,0,1,89.3,124.2Z"></path> <path class="c" d="M81.5,124.2a2.5,2.5,0,0,1-2.6-2.6v-2.7a2.5,2.5,0,0,1,2.6-2.6,2.5,2.5,0,0,1,2.6,2.6v2.7A2.5,2.5,0,0,1,81.5,124.2Z"></path> <path class="c" d="M73.6,124.2a2.5,2.5,0,0,1-2.6-2.6v-2.7a2.5,2.5,0,0,1,2.6-2.6,2.5,2.5,0,0,1,2.7,2.6v2.7A2.5,2.5,0,0,1,73.6,124.2Z"></path> <path class="c" d="M65.8,124.2a2.5,2.5,0,0,1-2.6-2.6v-2.7a2.5,2.5,0,0,1,2.6-2.6,2.5,2.5,0,0,1,2.6,2.6v2.7A2.5,2.5,0,0,1,65.8,124.2Z"></path> <path class="c" d="M58,124.2a2.5,2.5,0,0,1-2.6-2.6v-2.7a2.5,2.5,0,0,1,2.6-2.6,2.5,2.5,0,0,1,2.6,2.6v2.7A2.5,2.5,0,0,1,58,124.2Z"></path> <path class="c" d="M50.2,124.2a2.5,2.5,0,0,1-2.6-2.6v-2.7a2.6,2.6,0,1,1,5.2,0v2.7A2.5,2.5,0,0,1,50.2,124.2Z"></path> <path class="c" d="M42.4,124.2a2.5,2.5,0,0,1-2.6-2.6v-2.7a2.5,2.5,0,0,1,2.6-2.6,2.5,2.5,0,0,1,2.6,2.6v2.7A2.5,2.5,0,0,1,42.4,124.2Z"></path> <path class="c" d="M34.6,124.2a2.5,2.5,0,0,1-2.6-2.6v-2.7a2.5,2.5,0,0,1,2.6-2.6,2.5,2.5,0,0,1,2.6,2.6v2.7A2.5,2.5,0,0,1,34.6,124.2Z"></path> <path class="b" d="M144,108.5a2.4,2.4,0,0,1-2.6-2.6V82.5a2.6,2.6,0,0,1,5.2,0v23.4A2.4,2.4,0,0,1,144,108.5Z"></path> <path class="b" d="M128.4,108.5a2.4,2.4,0,0,1-2.6-2.6V82.5a2.4,2.4,0,0,1,2.6-2.6,2.5,2.5,0,0,1,2.6,2.6v23.4A2.5,2.5,0,0,1,128.4,108.5Z"></path> <path class="b" d="M120.6,108.5a2.5,2.5,0,0,1-2.7-2.6V82.5a2.5,2.5,0,0,1,2.7-2.6,2.5,2.5,0,0,1,2.6,2.6v23.4A2.5,2.5,0,0,1,120.6,108.5Z"></path> <path class="b" d="M107.5,108.5a2.5,2.5,0,0,1-2.6-2.6V82.5a2.5,2.5,0,0,1,2.6-2.6,2.4,2.4,0,0,1,2.6,2.6v23.4A2.4,2.4,0,0,1,107.5,108.5Z"></path> <path class="b" d="M99.7,108.5a2.4,2.4,0,0,1-2.6-2.6V82.5a2.6,2.6,0,0,1,5.2,0v23.4A2.4,2.4,0,0,1,99.7,108.5Z"></path> <path class="b" d="M86.7,108.5a2.4,2.4,0,0,1-2.6-2.6V82.5a2.4,2.4,0,0,1,2.6-2.6,2.5,2.5,0,0,1,2.6,2.6v23.4A2.5,2.5,0,0,1,86.7,108.5Z"></path> <path class="b" d="M71,108.5a2.5,2.5,0,0,1-2.6-2.6V82.5A2.5,2.5,0,0,1,71,79.9a2.4,2.4,0,0,1,2.6,2.6v23.4A2.4,2.4,0,0,1,71,108.5Z"></path> <path class="b" d="M63.2,108.5a2.5,2.5,0,0,1-2.6-2.6V82.5a2.5,2.5,0,0,1,2.6-2.6,2.4,2.4,0,0,1,2.6,2.6v23.4A2.4,2.4,0,0,1,63.2,108.5Z"></path> <path class="b" d="M55.4,108.5a2.4,2.4,0,0,1-2.6-2.6V82.5a2.6,2.6,0,0,1,5.2,0v23.4A2.4,2.4,0,0,1,55.4,108.5Z"></path> <path class="b" d="M42.4,108.5a2.4,2.4,0,0,1-2.6-2.6V82.5a2.4,2.4,0,0,1,2.6-2.6A2.5,2.5,0,0,1,45,82.5v23.4A2.5,2.5,0,0,1,42.4,108.5Z"></path> <path class="b" d="M34.6,108.5a2.4,2.4,0,0,1-2.6-2.6V82.5a2.4,2.4,0,0,1,2.6-2.6,2.5,2.5,0,0,1,2.6,2.6v23.4A2.5,2.5,0,0,1,34.6,108.5Z"></path> <path class="d" d="M164.9,77.3H13.7a2.5,2.5,0,0,1-2.6-2.7A2.5,2.5,0,0,1,13.7,72H164.9a2.5,2.5,0,0,1,2.6,2.6A2.5,2.5,0,0,1,164.9,77.3Z"></path> <path class="b" d="M154.4,69.4a2.5,2.5,0,0,1-2.6-2.6V30.4a2.5,2.5,0,0,1,2.6-2.7,2.5,2.5,0,0,1,2.6,2.7V66.8A2.4,2.4,0,0,1,154.4,69.4Z"></path> <path class="b" d="M144,69.4a2.4,2.4,0,0,1-2.6-2.6V30.4a2.6,2.6,0,1,1,5.2,0V66.8A2.4,2.4,0,0,1,144,69.4Z"></path> <path class="b" d="M128.4,69.4a2.4,2.4,0,0,1-2.6-2.6V30.4a2.5,2.5,0,0,1,2.6-2.7,2.5,2.5,0,0,1,2.6,2.7V66.8A2.5,2.5,0,0,1,128.4,69.4Z"></path> <path class="b" d="M120.6,69.4a2.5,2.5,0,0,1-2.7-2.6V30.4a2.7,2.7,0,1,1,5.3,0V66.8A2.5,2.5,0,0,1,120.6,69.4Z"></path> <path class="b" d="M107.5,69.4a2.5,2.5,0,0,1-2.6-2.6V30.4a2.5,2.5,0,0,1,2.6-2.7,2.5,2.5,0,0,1,2.6,2.7V66.8A2.4,2.4,0,0,1,107.5,69.4Z"></path> <path class="b" d="M99.7,69.4a2.4,2.4,0,0,1-2.6-2.6V30.4a2.6,2.6,0,1,1,5.2,0V66.8A2.4,2.4,0,0,1,99.7,69.4Z"></path> <path class="b" d="M86.7,69.4a2.4,2.4,0,0,1-2.6-2.6V30.4a2.5,2.5,0,0,1,2.6-2.7,2.5,2.5,0,0,1,2.6,2.7V66.8A2.5,2.5,0,0,1,86.7,69.4Z"></path> <path class="b" d="M71,69.4a2.5,2.5,0,0,1-2.6-2.6V30.4A2.5,2.5,0,0,1,71,27.7a2.5,2.5,0,0,1,2.6,2.7V66.8A2.4,2.4,0,0,1,71,69.4Z"></path> <path class="b" d="M63.2,69.4a2.5,2.5,0,0,1-2.6-2.6V30.4a2.5,2.5,0,0,1,2.6-2.7,2.5,2.5,0,0,1,2.6,2.7V66.8A2.4,2.4,0,0,1,63.2,69.4Z"></path> <path class="b" d="M55.4,69.4a2.4,2.4,0,0,1-2.6-2.6V30.4a2.6,2.6,0,1,1,5.2,0V66.8A2.4,2.4,0,0,1,55.4,69.4Z"></path> <path class="b" d="M42.4,69.4a2.4,2.4,0,0,1-2.6-2.6V30.4a2.5,2.5,0,0,1,2.6-2.7A2.5,2.5,0,0,1,45,30.4V66.8A2.5,2.5,0,0,1,42.4,69.4Z"></path> <path class="b" d="M34.6,69.4A2.4,2.4,0,0,1,32,66.8V30.4a2.5,2.5,0,0,1,2.6-2.7,2.5,2.5,0,0,1,2.6,2.7V66.8A2.5,2.5,0,0,1,34.6,69.4Z"></path> <path class="b" d="M24.1,69.4a2.5,2.5,0,0,1-2.6-2.6V30.4a2.5,2.5,0,0,1,2.6-2.7,2.5,2.5,0,0,1,2.6,2.7V66.8A2.4,2.4,0,0,1,24.1,69.4Z"></path> <path class="a" d="M164.9,33a2.5,2.5,0,0,1-2.7-2.6V17.3H146.6a2.4,2.4,0,0,1-2.6-2.6,2.5,2.5,0,0,1,2.6-2.6h20.9V30.4A2.5,2.5,0,0,1,164.9,33Z"></path> <path class="a" d="M13.7,33a2.5,2.5,0,0,1-2.6-2.6V12.1H29.4A2.5,2.5,0,0,1,32,14.7a2.5,2.5,0,0,1-2.6,2.6H16.3V30.4A2.5,2.5,0,0,1,13.7,33Z"></path> </svg> 