<?xml version="1.0" encoding="UTF-8"?> <svg xmlns="http://www.w3.org/2000/svg" viewBox="0 0 178.8 160.3"> <defs> <style>.a{fill:#c880ff;}.b{fill:#c7ecff;}.c{fill:#e3c0ff;}.d{fill:#fff;}.e{fill:#9b1aff;}</style> </defs> <title>retailers</title> <path class="a" d="M161.8,79.7A70.3,70.3,0,0,1,91.5,150H87.8a70.4,70.4,0,0,1,0-140.5h3.7A70.4,70.4,0,0,1,161.8,79.7Z"></path> <path class="b" d="M154.5,79.7a70.3,70.3,0,0,1-66.6,70.2h-.1a70.4,70.4,0,0,1,0-140.5h.1A70.4,70.4,0,0,1,154.5,79.7Z"></path> <path class="c" d="M89.1,99.1a7.3,7.3,0,1,1-7.3-7.3A7.3,7.3,0,0,1,89.1,99.1Z"></path> <path class="c" d="M113.3,99.1a7.3,7.3,0,1,1-7.2-7.3A7.2,7.2,0,0,1,113.3,99.1Z"></path> <path class="a" d="M115.7,61l-1.3,4.2L112.9,70l-3.1,10.4a2.4,2.4,0,0,1-2.3,1.7H72.1L70.3,57.8h43a2.6,2.6,0,0,1,2,1A2.8,2.8,0,0,1,115.7,61Z"></path> <path class="c" d="M108.4,61l-1.3,4.2L105.7,70l-3.1,10.4a2.6,2.6,0,0,1-2.4,1.7H72.1L70.3,57.8h35.8a2.5,2.5,0,0,1,2.3,3.2Z"></path> <path class="d" d="M87.8,149.9h7.3a70.4,70.4,0,0,1,0-140.5H87.8a70.4,70.4,0,0,0,0,140.5Z"></path> <path class="d" d="M56.4,21.5a70.2,70.2,0,0,0-21.7,21A68.4,68.4,0,0,0,23.6,79.7H18.8A72.7,72.7,0,0,1,30.6,39.9,74.7,74.7,0,0,1,53.9,17.4Z"></path> <path class="e" d="M37.7,31.8a2.5,2.5,0,0,0,.8,1.7,2.8,2.8,0,0,0,1.8.6,2.1,2.1,0,0,0,1.6-.8,2,2,0,0,0,.6-1.7v-.4c0-.2-.1-.3-.2-.5a.8.8,0,0,0-.2-.4l-.3-.4a2.6,2.6,0,0,0-1.7-.7l-.9.2A2.8,2.8,0,0,0,37.7,31.8Z"></path> <path class="e" d="M164.2,79.7a71.9,71.9,0,0,0-7.6-32.5h-.1A72.7,72.7,0,0,0,53.9,17.4l-4.2,2.7-4,3.1a2.4,2.4,0,1,0,3.1,3.7c1.1-1,2.4-1.8,3.7-2.8l3.9-2.6a66.4,66.4,0,0,1,13.8-6.3c-8.3,6.9-15.1,17.5-19.4,30.5h-18l1.9-3.2L36,40.6a2.5,2.5,0,0,0-.6-3.4,2.2,2.2,0,0,0-1.8-.4,2.7,2.7,0,0,0-1.6,1c-.4.7-.9,1.4-1.4,2.1a79.4,79.4,0,0,0-4,7c-.1.2-.2.3-.2.5a72.3,72.3,0,0,0-7.6,32.3,73.1,73.1,0,0,0,7.6,32.4h.1a72.6,72.6,0,0,0,130,0h.1A71.7,71.7,0,0,0,164.2,79.7Zm-4.9-2.5H137.5a104.2,104.2,0,0,0-3.8-26.6h19.1A66.4,66.4,0,0,1,159.3,77.2Zm0,4.9a67.2,67.2,0,0,1-6.5,26.7H133.7a105,105,0,0,0,3.8-26.7Zm-9-36.4H132.2c-4.3-13-11.1-23.6-19.4-30.5A68.6,68.6,0,0,1,150.3,45.7ZM89.1,11.9V48.1a2.4,2.4,0,1,0,4.8,0V11.9c14.2,1.4,26.5,14.6,33.3,33.8h-9a2.4,2.4,0,0,0-2.4,2.4,2.4,2.4,0,0,0,2.4,2.5h10.5a103.8,103.8,0,0,1,4,26.6H119.3a2.5,2.5,0,0,0,0,4.9h13.4a105.2,105.2,0,0,1-4,26.7H117.9a2.4,2.4,0,0,0-2.4,2.4,2.4,2.4,0,0,0,2.4,2.4h9.3c-6.8,19.2-19.1,32.5-33.3,33.8V113a2.4,2.4,0,1,0-4.8,0v34.4c-14.2-1.3-26.5-14.6-33.3-33.8H70a2.4,2.4,0,0,0,2.4-2.4,2.4,2.4,0,0,0-2.4-2.4H54.3a105.2,105.2,0,0,1-4-26.7H62a2.5,2.5,0,0,0,0-4.9H50.3a103.8,103.8,0,0,1,4-26.6h.8a2.5,2.5,0,0,0,2.5-2.5,2.6,2.6,0,0,0-1.8-2.3C62.5,26.6,74.8,13.3,89.1,11.9ZM23.7,82.1H45.5a105,105,0,0,0,3.8,26.7H30.2A67.2,67.2,0,0,1,23.7,82.1ZM49.3,50.6a104.2,104.2,0,0,0-3.8,26.6H23.7a68.1,68.1,0,0,1,6.5-26.6Zm-16.5,63h18c4.3,13,11.1,23.7,19.4,30.5A68,68,0,0,1,32.8,113.6Zm80,30.5c8.3-6.8,15.1-17.5,19.4-30.5h18.1A68.6,68.6,0,0,1,112.8,144.1Z"></path> <path class="e" d="M64.8,50.6h2.6l.5,7.4,1.5,24.3.3,4.6a7.1,7.1,0,0,0,4.2,6.6,9.7,9.7,0,0,0,13.9,13.3,9.9,9.9,0,0,0,2.4-12.6h7.5a9.2,9.2,0,0,0-1.3,4.9,9.7,9.7,0,0,0,19.4,0,10.1,10.1,0,0,0-1.5-5.1,2.4,2.4,0,0,0,1.4-2.7,2.4,2.4,0,0,0-2.4-1.9H77a3,3,0,0,1-1.8-.8,2.9,2.9,0,0,1-.7-1.8V84.5h34.1a2.4,2.4,0,0,0,2.3-1.7l7.3-24.3a2.3,2.3,0,0,0-.4-2.1,2.6,2.6,0,0,0-1.9-1H72.6L72.1,48a2.4,2.4,0,0,0-2.4-2.3H64.8a2.5,2.5,0,0,0,0,4.9ZM86.7,99.1a4.9,4.9,0,0,1-4.9,4.8,4.9,4.9,0,0,1,0-9.7A4.9,4.9,0,0,1,86.7,99.1Zm19.4,4.8a4.9,4.9,0,1,1,4.8-4.8A4.9,4.9,0,0,1,106.1,103.9Zm6.4-43.6L111,65.1H86.7a2.5,2.5,0,1,0,0,4.9h22.9l-2.9,9.7H74.1L72.9,60.3Z"></path> </svg> 