<?xml version="1.0" encoding="UTF-8"?> <svg xmlns="http://www.w3.org/2000/svg" viewBox="0 0 178.8 160.3"> <defs> <style>.a{fill:#dfeeff;}.b{fill:#bad9ff;}.c{fill:#e3c0ff;}.d{fill:#c880ff;}.e{fill:#fff;}.f{fill:#9b1aff;}</style> </defs> <title>legal-star</title> <path class="a" d="M150,29.6v82.5a4.9,4.9,0,0,1-4.8,4.8h-.8a31.4,31.4,0,0,1-2.9-14.5h0a34,34,0,1,0-55.7,0h0a30.3,30.3,0,0,1-3,14.5h-54a4.9,4.9,0,0,1-4.9-4.8V29.6Z"></path> <path class="b" d="M142.7,29.6v36a33.5,33.5,0,0,1,0,34.8v11.7h0a37.5,37.5,0,0,0,1.7,4.7h.8a4.9,4.9,0,0,0,4.8-4.8V29.6Z"></path> <path class="b" d="M110,49.2a34,34,0,0,0-31.5,53.2h0a31.4,31.4,0,0,1-2.9,14.5h7.2a30.3,30.3,0,0,0,3-14.5h0A33.9,33.9,0,0,1,110,49.2Z"></path> <path class="c" d="M150,15.1V29.6H23.9V15.1a4.9,4.9,0,0,1,4.9-4.9H145.2A4.9,4.9,0,0,1,150,15.1Z"></path> <path class="d" d="M145.2,10.2h-7.3a4.8,4.8,0,0,1,4.8,4.9V29.6H150V15.1A4.9,4.9,0,0,0,145.2,10.2Z"></path> <rect class="c" x="33.6" y="68.4" width="36.4" height="12.12" rx="2.4" ry="2.4"></rect> <path class="d" d="M67.6,68.4H60.3a2.5,2.5,0,0,1,2.4,2.5v7.2a2.5,2.5,0,0,1-2.4,2.5h7.3A2.5,2.5,0,0,0,70,78.1V70.9A2.5,2.5,0,0,0,67.6,68.4Z"></path> <path class="a" d="M113.6,49a34.1,34.1,0,1,0,24,10,34,34,0,0,0-24-10Zm21.3,28-8.8,9.1a2,2,0,0,0-.5,1.5l2.1,12.7a1.6,1.6,0,0,1-.6,1.7,1.7,1.7,0,0,1-1.8.2l-10.9-6a1.5,1.5,0,0,0-1.6,0l-10.8,6a1.7,1.7,0,0,1-1.8-.2,1.8,1.8,0,0,1-.7-1.7l2.1-12.7a1.7,1.7,0,0,0-.5-1.5L92.3,77a1.7,1.7,0,0,1-.4-1.7,1.6,1.6,0,0,1,1.4-1.2l12.1-1.9a1.5,1.5,0,0,0,1.3-1l5.4-11.5a1.8,1.8,0,0,1,1.5-1,1.8,1.8,0,0,1,1.6,1l5.4,11.5a1.5,1.5,0,0,0,1.3,1L134,74.1a1.7,1.7,0,0,1,1.4,1.2,1.6,1.6,0,0,1-.5,1.7Z"></path> <path class="b" d="M113.6,49l-3.6.2a34,34,0,0,1,1.6,67.3l-1.6.2,3.6.2a34,34,0,1,0,0-67.9Z"></path> <path class="c" d="M126.1,86.1a2,2,0,0,0-.5,1.5l2.1,12.7a1.6,1.6,0,0,1-.6,1.7,1.7,1.7,0,0,1-1.8.2l-10.9-6a1.5,1.5,0,0,0-1.6,0l-10.8,6a1.7,1.7,0,0,1-1.8-.2,1.8,1.8,0,0,1-.7-1.7l2.1-12.7a1.7,1.7,0,0,0-.5-1.5L92.3,77a1.7,1.7,0,0,1-.4-1.7,1.6,1.6,0,0,1,1.4-1.2l12.1-1.9a1.5,1.5,0,0,0,1.3-1l5.4-11.5a1.8,1.8,0,0,1,1.5-1,1.8,1.8,0,0,1,1.6,1l5.4,11.5a1.5,1.5,0,0,0,1.3,1L134,74.1a1.7,1.7,0,0,1,1.4,1.2,1.6,1.6,0,0,1-.5,1.7Z"></path> <path class="c" d="M108.4,116.5a30.6,30.6,0,0,1-4.8,12c-3,4.1-7.3,6.6-11,9.8a21.8,21.8,0,0,0-6.8,12.6,15.7,15.7,0,0,1-4.7-14.6c-6.9,4.9-18.4,0-18.4,0a39.6,39.6,0,0,0,20.1-19.4,30.3,30.3,0,0,0,3-14.5h0a33.7,33.7,0,0,0,22.6,14.1Z"></path> <path class="b" d="M73.9,136.3a12.7,12.7,0,0,1-4.5,1.9l4.1.3a14.3,14.3,0,0,1,.4-2.2Z"></path> <path class="d" d="M85.8,102.4h0a28,28,0,0,1-.6,7.1,33.6,33.6,0,0,0,15.9,7,29.2,29.2,0,0,1-4.8,12c-3,4.1-7.2,6.6-11,9.8a19.6,19.6,0,0,0-4,5,18.5,18.5,0,0,0,4.5,7.6,21.8,21.8,0,0,1,6.8-12.6c3.7-3.2,8-5.7,11-9.8a30.6,30.6,0,0,0,4.8-12A33.7,33.7,0,0,1,85.8,102.4Z"></path> <path class="c" d="M146.1,136.3a15.4,15.4,0,0,1-4.6,14.6,21.8,21.8,0,0,0-6.8-12.6c-3.8-3.2-8-5.7-11-9.8a29.2,29.2,0,0,1-4.8-12,33.9,33.9,0,0,0,22.6-14.1h0a31.4,31.4,0,0,0,2.9,14.5,39.8,39.8,0,0,0,20.2,19.4s-11.6,4.9-18.5,0Z"></path> <path class="d" d="M144.4,116.9a31.4,31.4,0,0,1-2.9-14.5h0a32.3,32.3,0,0,1-6.7,7.1,30.5,30.5,0,0,0,2.4,7.4,39.6,39.6,0,0,0,20.1,19.4,31.9,31.9,0,0,1-6.7,1.9,29.3,29.3,0,0,0,14-1.9A39.8,39.8,0,0,1,144.4,116.9Z"></path> <path class="d" d="M138.9,136.3a15.1,15.1,0,0,1-.2,7,20.5,20.5,0,0,1,2.8,7.6,16.3,16.3,0,0,0,5-12.4,13.5,13.5,0,0,1-7.6-2.2Z"></path> <path class="e" d="M28.8,116.9H36a4.9,4.9,0,0,1-4.8-4.8v-97A4.9,4.9,0,0,1,36,10.2H28.8a4.9,4.9,0,0,0-4.9,4.9v97A4.9,4.9,0,0,0,28.8,116.9Z"></path> <path class="e" d="M21.5,92.7h4.8v19.4H21.5Z"></path> <path class="f" d="M24,104.8a2.5,2.5,0,0,1-2.5-2.4,2.4,2.4,0,0,1,2.4-2.4H24a2.4,2.4,0,0,1,2.4,2.4A2.4,2.4,0,0,1,24,104.8Z"></path> <path class="f" d="M150,63.6a2.4,2.4,0,0,0,2.4-2.4V15.1a7.3,7.3,0,0,0-7.2-7.3H28.8a7.3,7.3,0,0,0-7.3,7.3V92.7a2.4,2.4,0,0,0,2.4,2.4,2.4,2.4,0,0,0,2.4-2.4V32.1H147.6V61.2A2.4,2.4,0,0,0,150,63.6ZM26.3,27.2V15.1a2.4,2.4,0,0,1,2.5-2.4H145.2a2.4,2.4,0,0,1,2.4,2.4V27.2Z"></path> <path class="f" d="M28.8,119.3H72.4a2.3,2.3,0,0,0,2.4-2.4,2.4,2.4,0,0,0-2.4-2.4H28.8a2.5,2.5,0,0,1-2.5-2.4,2.3,2.3,0,0,0-2.4-2.4,2.4,2.4,0,0,0-2.4,2.4A7.3,7.3,0,0,0,28.8,119.3Z"></path> <circle class="f" cx="33.6" cy="19.9" r="2.4"></circle> <circle class="f" cx="43.3" cy="19.9" r="2.4"></circle> <circle class="f" cx="53" cy="19.9" r="2.4"></circle> <path class="f" d="M96.7,17.5h-17a2.5,2.5,0,0,0,0,4.9h17a2.5,2.5,0,0,0,0-4.9Z"></path> <path class="f" d="M33.6,44.2h4.9a2.5,2.5,0,0,0,0-4.9H33.6a2.5,2.5,0,0,0,0,4.9Z"></path> <path class="f" d="M72.4,41.8A2.5,2.5,0,0,0,70,39.3H48.2a2.5,2.5,0,1,0,0,4.9H70A2.4,2.4,0,0,0,72.4,41.8Z"></path> <path class="f" d="M101.5,41.8a2.5,2.5,0,0,0-2.4-2.5H79.7a2.5,2.5,0,0,0,0,4.9H99.1A2.4,2.4,0,0,0,101.5,41.8Z"></path> <path class="f" d="M62.7,49a2.5,2.5,0,0,0,0,4.9h4.9a2.5,2.5,0,0,0,0-4.9Z"></path> <path class="f" d="M77.3,49a2.5,2.5,0,1,0,0,4.9h4.8a2.4,2.4,0,0,0,2.4-2.4A2.4,2.4,0,0,0,82.1,49Z"></path> <path class="f" d="M33.6,53.9H53a2.4,2.4,0,0,0,2.4-2.4A2.4,2.4,0,0,0,53,49H33.6a2.5,2.5,0,0,0,0,4.9Z"></path> <path class="f" d="M31.2,78.1A4.9,4.9,0,0,0,36,83H67.6a4.9,4.9,0,0,0,4.8-4.9V70.9A4.9,4.9,0,0,0,67.6,66H36a4.9,4.9,0,0,0-4.8,4.9ZM36,70.9H67.6v7.2H36Z"></path> <path class="f" d="M128.1,87.5l8.6-8.8a4.1,4.1,0,0,0-2.3-7l-11.8-1.8-5.3-11.2a3.9,3.9,0,0,0-3.7-2.4,4,4,0,0,0-3.7,2.4l-5.2,11.2L92.9,71.7a4.2,4.2,0,0,0-3.3,2.7,4.2,4.2,0,0,0,1,4.3l8.6,8.8L97.1,99.9a4.4,4.4,0,0,0,1.8,4.2,3.9,3.9,0,0,0,4.3.2l10.4-5.8,10.5,5.8a4,4,0,0,0,4.3-.3,4.1,4.1,0,0,0,1.7-4.1Zm-4.8.5,1.8,11.3-9.5-5.2a3.9,3.9,0,0,0-3.9,0l-9.5,5.2L104,88a4.3,4.3,0,0,0-1.1-3.6l-8-8.1,10.9-1.7a4.3,4.3,0,0,0,3.1-2.3l4.7-10.1,4.8,10.1a4.1,4.1,0,0,0,3.1,2.3l10.8,1.7-7.9,8.1a4,4,0,0,0-1.1,3.6Z"></path> <path class="f" d="M165.6,134.1c-21.7-10.4-21.9-27.8-21.7-31a36.3,36.3,0,1,0-60.5,0c.1,3.1-.2,20.7-21.7,31.1a2.3,2.3,0,0,0-1.4,2.2,2.4,2.4,0,0,0,1.5,2.2c.4.2,9.1,3.7,16.6,1.7A19.2,19.2,0,0,0,84,152.6h0a2.6,2.6,0,0,0,2.8.5,2.6,2.6,0,0,0,1.4-2.4,20.6,20.6,0,0,1,6-10.5l3.3-2.6a38.9,38.9,0,0,0,8-7.7,30.4,30.4,0,0,0,4.8-10.7l3.3.2,3.4-.2a32.1,32.1,0,0,0,4.7,10.7,36.6,36.6,0,0,0,8.1,7.6l3.3,2.6a22.1,22.1,0,0,1,6,10.6,2.4,2.4,0,0,0,1.4,2.4,2.5,2.5,0,0,0,2.7-.5h.1a18.8,18.8,0,0,0,5.6-12.3c7.5,2.1,16.2-1.5,16.6-1.7a2.3,2.3,0,0,0,1.5-2.1,2.4,2.4,0,0,0-1.4-2.3Zm-64-7a34.4,34.4,0,0,1-7.1,6.6L91,136.5a24.6,24.6,0,0,0-6.2,9,11.3,11.3,0,0,1-1.3-8.4,2.5,2.5,0,0,0-.9-2.7,2.4,2.4,0,0,0-2.8-.1A14.5,14.5,0,0,1,69,135.6c13.9-8.6,17.8-19.9,18.9-27a35.5,35.5,0,0,0,17.6,9.8,28.4,28.4,0,0,1-3.9,8.7ZM82.1,83a31.6,31.6,0,1,1,31.5,31.5A31.5,31.5,0,0,1,82.1,83Zm57.7,66.2h0Zm7.7-14.9a2.4,2.4,0,0,0-2.8.1,2.5,2.5,0,0,0-.9,2.7,11.8,11.8,0,0,1-1.3,8.4,23.7,23.7,0,0,0-6.3-9l-3.4-2.8a34.4,34.4,0,0,1-7.1-6.6,26.2,26.2,0,0,1-3.9-8.7,35.5,35.5,0,0,0,17.6-9.8c1.1,7.1,5,18.4,18.8,27a14.3,14.3,0,0,1-10.7-1.3Z"></path> </svg> 