<?xml version="1.0" encoding="UTF-8"?> <!-- Generator: Adobe Illustrator 22.1.0, SVG Export Plug-In . SVG Version: 6.00 Build 0) --> <svg xmlns="http://www.w3.org/2000/svg" xmlns:xlink="http://www.w3.org/1999/xlink" id="Capa_1" x="0px" y="0px" viewBox="0 0 511.9 511.9" style="enable-background:new 0 0 511.9 511.9;" xml:space="preserve"> <style type="text/css"> .st0{fill:#80C8FF;} .st1{fill:#FFFFFF;} .st2{fill:#C7ECFF;} .st3{fill:#AC40FF;} </style> <g> <path class="st0" d="M107.1,418L187,498c8.4,7.7,21.5,7.1,29.3-1.3l249.2-247.4l8.2-190.4L107.1,418z"></path> <path class="st1" d="M98.2,401l-79.9-79.9c-7.7-8.4-7.1-21.5,1.3-29.3L266.9,42.6l190.4-8.2L98.2,401z"></path> <path class="st2" d="M179.4,482.2L33.6,336.5c-6.9-8.5-5.8-20.9,2.5-28L283.6,59.4l182.2-16.4l-17.2,190L207.4,479.7 C200.3,488.1,187.8,489.2,179.4,482.2z"></path> <circle class="st1" cx="380.2" cy="127.9" r="34.1"></circle> <g> <path class="st3" d="M209,511.9c-8,0-15.6-3.2-21.3-8.8L13.1,328.5c-11.8-11.8-11.8-30.8,0-42.6l155.8-157.1 c2.1-2.2,5.3-3,8.2-2.2s5.3,3.1,6.1,6s0,6.1-2.2,8.3L25.2,297.9c-5.1,5.1-5.1,13.4,0,18.5l174.6,174.6c5.1,5.1,13.4,5.1,18.4,0 l238.3-244.7V51.1H270l-39.8,40.1c-3.3,3.3-8.7,3.4-12.1,0.1c-3.3-3.3-3.4-8.7-0.1-12.1l44.8-45.2h210.8v219.2L230.4,503 C224.7,508.7,217,511.9,209,511.9z"></path> <circle class="st3" cx="200.5" cy="110.9" r="8.5"></circle> <path class="st3" d="M379.7,170.6c-23.6,0-42.7-19.1-42.7-42.7s19.1-42.7,42.7-42.7s42.7,19.1,42.7,42.7 C422.4,151.5,403.3,170.6,379.7,170.6z M379.7,102.3c-14.1,0-25.6,11.5-25.6,25.6s11.5,25.6,25.6,25.6s25.6-11.5,25.6-25.6 C405.3,113.8,393.9,102.4,379.7,102.3z"></path> <path class="st3" d="M379.7,136.5c-3.5,0-6.6-2.1-7.9-5.3c-1.3-3.2-0.6-6.9,1.8-9.3L493.2,2.4c3.3-3.3,8.7-3.3,12,0.1 c3.3,3.3,3.3,8.7,0.1,12L385.8,134C384.2,135.6,382,136.5,379.7,136.5z"></path> <path class="st3" d="M276,372c-3.5,0-6.6-2.1-7.9-5.3c-1.3-3.2-0.6-6.9,1.8-9.3l90.5-90.5c2.2-2.2,5.3-3,8.2-2.2 c2.9,0.8,5.2,3.1,6,6s-0.1,6.1-2.2,8.2l-90.5,90.5C280.5,371.1,278.3,372,276,372z"></path> <path class="st3" d="M396.7,251.3c-1.1,0-2.3-0.2-3.3-0.6c-1-0.4-1.9-1.1-2.7-1.9c-1.6-1.6-2.5-3.8-2.5-6.1c0-2.2,0.9-4.4,2.5-6 c0.4-0.4,0.8-0.8,1.3-1.1c0.5-0.3,1-0.6,1.5-0.8c0.5-0.3,1-0.4,1.5-0.5c1.7-0.3,3.4-0.2,5,0.5c1,0.4,2,1.1,2.7,1.9 c1.6,1.6,2.6,3.7,2.6,6c0,1.1-0.2,2.2-0.7,3.2c-0.4,1.1-1.1,2-1.9,2.8c-0.8,0.8-1.7,1.4-2.7,1.9 C398.9,251.1,397.8,251.3,396.7,251.3z"></path> <path class="st3" d="M221.7,257.3c-3.5,0-6.6-2.1-7.9-5.3s-0.6-6.9,1.8-9.3l90.5-90.5c3.3-3.3,8.7-3.3,12.1,0 c3.3,3.3,3.3,8.7,0,12.1l-90.5,90.5C226.2,256.4,224,257.3,221.7,257.3z"></path> <path class="st3" d="M294.1,269.4c-3.5,0-6.6-2.1-7.9-5.3c-1.3-3.2-0.6-6.9,1.8-9.3l60.3-60.3c3.3-3.3,8.7-3.3,12.1,0 s3.3,8.7,0,12.1l-60.3,60.3C298.6,268.5,296.4,269.4,294.1,269.4L294.1,269.4z"></path> <path class="st3" d="M233.8,329.7c-3.5,0-6.6-2.1-7.9-5.3c-1.3-3.2-0.6-6.9,1.8-9.3l12.1-12.1c2.2-2.2,5.3-3,8.2-2.2 c2.9,0.8,5.2,3.1,6,6s-0.1,6.1-2.2,8.2l-12.1,12.1C238.2,328.8,236,329.7,233.8,329.7z"></path> <path class="st3" d="M149.3,245.2c-3.5,0-6.6-2.1-7.9-5.3s-0.6-6.9,1.8-9.3l90.5-90.5c3.3-3.3,8.7-3.3,12.1,0s3.3,8.7,0,12.1 l-90.5,90.5C153.7,244.3,151.6,245.2,149.3,245.2L149.3,245.2z"></path> <path class="st3" d="M270,124.5c-1.1,0-2.2-0.2-3.2-0.6c-1-0.5-2-1.1-2.8-1.9c-0.8-0.8-1.5-1.8-1.9-2.8c-0.4-1-0.6-2.1-0.6-3.2 c0-2.2,0.9-4.4,2.5-6c0.8-0.8,1.7-1.5,2.8-1.9c3.2-1.3,6.8-0.5,9.3,1.9c2.4,2.4,3.2,6.1,1.8,9.2c-0.4,1.1-1,2-1.8,2.8 c-0.8,0.8-1.8,1.4-2.8,1.9C272.2,124.3,271.1,124.5,270,124.5L270,124.5z"></path> <path class="st3" d="M197.6,281.5c-2.3,0-4.4-0.9-6.1-2.5c-0.8-0.8-1.4-1.8-1.9-2.8c-0.9-2.1-0.9-4.4,0-6.5c0.4-1.1,1.1-2,1.9-2.8 c0.4-0.4,0.8-0.7,1.3-1c0.5-0.3,0.9-0.6,1.4-0.9c0.5-0.2,1.1-0.3,1.6-0.4c2.8-0.6,5.7,0.3,7.7,2.3c0.8,0.8,1.5,1.7,1.9,2.8 c1.3,3.2,0.6,6.9-1.9,9.3C202,280.5,199.9,281.4,197.6,281.5z"></path> <path class="st3" d="M270,293.5c-1.1,0-2.2-0.2-3.2-0.6c-1-0.5-2-1.1-2.8-1.9c-0.8-0.8-1.5-1.8-1.9-2.8c-0.4-1-0.6-2.1-0.6-3.3 c0-2.3,0.9-4.4,2.5-6.1c0.8-0.8,1.8-1.4,2.8-1.8c2.1-0.9,4.4-0.9,6.5,0c3.3,1.2,5.4,4.4,5.3,7.9c0,1.1-0.2,2.2-0.7,3.3 c-0.4,1.1-1,2-1.8,2.8c-0.8,0.8-1.8,1.4-2.8,1.9C272.2,293.3,271.1,293.5,270,293.5L270,293.5z"></path> <path class="st3" d="M174.8,425.5c-11.3,0-22.2-4.5-30.2-12.5c-2.2-2.2-3-5.3-2.2-8.2c0.8-2.9,3.1-5.2,6-6s6.1,0.1,8.2,2.2 c10.1,9.7,26.1,9.7,36.2,0c5.3-5.3,8-12.7,7.4-20.3c-0.3-3.4-2-6.5-4.7-8.7c-2.9-2.4-6.7-3.5-10.5-3l-56.1,7 c-8.4,1-16.8-1.4-23.4-6.7c-6.3-5-10.3-12.5-10.9-20.5c-1.5-17.8,8.3-34.7,24.6-42.3c16.2-7.5,35.5-4.1,48.1,8.5 c3.3,3.3,3.3,8.7,0,12.1s-8.7,3.3-12.1,0c-7.6-7.6-19.1-9.6-28.9-5.1c-9.7,4.5-15.6,14.7-14.7,25.4c0.3,3.4,2,6.5,4.7,8.7 c3,2.4,6.7,3.5,10.5,3l56.1-7c8.4-1,16.8,1.4,23.4,6.7c6.3,5,10.3,12.5,10.9,20.5c1,11.9-3,23.7-11.1,32.4 C198.1,420.5,186.7,425.5,174.8,425.5L174.8,425.5z"></path> <path class="st3" d="M209.6,426.3c-2.3,0-4.4-0.9-6-2.5L95,315.1c-3.3-3.3-3.3-8.7,0-12.1s8.7-3.3,12.1,0l108.6,108.6 c2.4,2.4,3.2,6.1,1.8,9.3C216.2,424.2,213.1,426.3,209.6,426.3L209.6,426.3z"></path> </g> </g> </svg> 